<?xml version="1.0" encoding="UTF-8"?>
<svg id="Camada_2" data-name="Camada 2" xmlns="http://www.w3.org/2000/svg" viewBox="0 0 261.95 226.62">
  <defs>
    <style>
      .cls-1 {
        fill: #ff4b00;
      }

      .cls-1, .cls-2 {
        stroke-width: 0px;
      }

      .cls-2 {
        fill: #0047ff;
      }
    </style>
  </defs>
  <g id="Camada_3" data-name="Camada 3">
    <path class="cls-1" d="M169.86,60.11l-25.64,31.11,20.51,18.45,25.64-31.11c15.53,18.84,5.42,68.79-46.05,64.82l-65.78,56.34-28.8-21.8L4.43,226.62l-4.43-30.75,56.04-52.57,21.43,17.37,37.73-43.1c-26.16-42.12,21.65-68.91,54.65-57.47Z"/>
    <path class="cls-2" d="M152.45,14c-52.74,0-95.5,42.76-95.5,95.5,0,8.73,1.18,17.18,3.37,25.21l18.25-15.74c-.4-3.11-.62-6.27-.62-9.48,0-41.08,33.42-74.5,74.5-74.5s74.5,33.42,74.5,74.5-33.42,74.5-74.5,74.5c-10.98,0-21.4-2.41-30.8-6.69l-16.78,15.01c14.01,8.06,30.25,12.68,47.58,12.68,52.74,0,95.5-42.76,95.5-95.5S205.19,14,152.45,14Z"/>
    <path class="cls-2" d="M128.95,0c-7.73,0-14,6.27-14,14s6.27,14,14,14,14-6.27,14-14-6.27-14-14-14h0Z"/>
    <path class="cls-2" d="M84.95,25c-7.73,0-14,6.27-14,14s6.27,14,14,14,14-6.27,14-14-6.27-14-14-14h0Z"/>
    <path class="cls-2" d="M59.95,67c-7.73,0-14,6.27-14,14s6.27,14,14,14,14-6.27,14-14-6.27-14-14-14h0Z"/>
    <path class="cls-2" d="M179.95,3c-7.73,0-14,6.27-14,14s6.27,14,14,14,14-6.27,14-14-6.27-14-14-14h0Z"/>
    <path class="cls-2" d="M222.95,31c-7.73,0-14,6.27-14,14s6.27,14,14,14,14-6.27,14-14-6.27-14-14-14h0Z"/>
    <path class="cls-2" d="M247.95,69c-7.73,0-14,6.27-14,14s6.27,14,14,14,14-6.27,14-14-6.27-14-14-14h0Z"/>
    <path class="cls-2" d="M247.95,122c-7.73,0-14,6.27-14,14s6.27,14,14,14,14-6.27,14-14-6.27-14-14-14h0Z"/>
    <path class="cls-2" d="M222.95,163c-7.73,0-14,6.27-14,14s6.27,14,14,14,14-6.27,14-14-6.27-14-14-14h0Z"/>
    <path class="cls-2" d="M179.95,186c-7.73,0-14,6.27-14,14s6.27,14,14,14,14-6.27,14-14-6.27-14-14-14h0Z"/>
    <path class="cls-2" d="M128.95,189c-7.73,0-14,6.27-14,14s6.27,14,14,14,14-6.27,14-14-6.27-14-14-14h0Z"/>
  </g>
</svg>