<?xml version="1.0" encoding="UTF-8"?>
<svg id="Camada_2" data-name="Camada 2" xmlns="http://www.w3.org/2000/svg" viewBox="0 0 863.76 226.62">
  <defs>
    <style>
      .cls-1 {
        fill: #ff4b00;
      }

      .cls-1, .cls-2, .cls-3 {
        stroke-width: 0px;
      }

      .cls-2 {
        fill: #0047ff;
      }

      .cls-3 {
        fill: #0047ff;
      }
    </style>
  </defs>
  <g id="Camada_1-2" data-name="Camada 1">
    <g>
      <path class="cls-3" d="M288.73,145.33v-46.08l6.96-6.96h66.84v26.64h-18.12v-10.56h-36.48v27.84h54.6v16.08h-66.84l-6.96-6.96Z"/>
      <path class="cls-3" d="M398.89,132.62l-30.36-34.2v-6.12h18.84l21.12,24.48,21-24.48h18.84v6.12l-30.24,34.2v19.68h-19.2v-19.68Z"/>
      <path class="cls-3" d="M454.33,92.3h67.44l6.96,6.96v17.88l-4.68,4.8,6.84,6.96v16.44l-6.96,6.96h-69.6v-60ZM509.53,115.7v-8.4h-36v8.4h36ZM511.69,137.29v-9.12h-38.16v9.12h38.16Z"/>
      <path class="cls-3" d="M539.89,145.33v-53.04h69.96v15h-50.76v8.4h47.4v12.48h-47.4v9.12h50.76v15h-63l-6.96-6.96Z"/>
      <path class="cls-3" d="M619.45,92.3h67.44l6.96,6.96v23.64l-6.96,6.96h-15.48l19.56,15.84v6.6h-20.52l-24.48-22.44h-7.32v22.44h-19.2v-60ZM674.65,115.7v-7.32h-36v7.32h36Z"/>
      <path class="cls-1" d="M703.45,145.33v-46.08l6.96-6.96h62.64l6.96,6.96v46.08l-6.96,6.96h-62.64l-6.96-6.96ZM760.8,136.21v-27.84h-38.16v27.84h38.16Z"/>
      <path class="cls-1" d="M789.61,136.21h54.96v-6.36l-46.8-4.2-8.16-8.16v-18.24l6.96-6.96h60.36v16.08h-48.12v5.76l47.04,4.32,7.92,7.92v18.96l-6.96,6.96h-67.2v-16.08Z"/>
    </g>
  </g>
  <g id="Camada_3" data-name="Camada 3">
    <path class="cls-1" d="M169.86,60.11l-25.64,31.11,20.51,18.45,25.64-31.11c15.53,18.84,5.42,68.79-46.05,64.82l-65.78,56.34-28.8-21.8L4.43,226.62l-4.43-30.75,56.04-52.57,21.43,17.37,37.73-43.1c-26.16-42.12,21.65-68.91,54.65-57.47Z"/>
    <path class="cls-2" d="M152.45,14c-52.74,0-95.5,42.76-95.5,95.5,0,8.73,1.18,17.18,3.37,25.21l18.25-15.74c-.4-3.11-.62-6.27-.62-9.48,0-41.08,33.42-74.5,74.5-74.5s74.5,33.42,74.5,74.5-33.42,74.5-74.5,74.5c-10.98,0-21.4-2.41-30.8-6.69l-16.78,15.01c14.01,8.06,30.25,12.68,47.58,12.68,52.74,0,95.5-42.76,95.5-95.5S205.19,14,152.45,14Z"/>
    <path class="cls-2" d="M128.95,0c-7.73,0-14,6.27-14,14s6.27,14,14,14,14-6.27,14-14-6.27-14-14-14h0Z"/>
    <path class="cls-2" d="M84.95,25c-7.73,0-14,6.27-14,14s6.27,14,14,14,14-6.27,14-14-6.27-14-14-14h0Z"/>
    <path class="cls-2" d="M59.95,67c-7.73,0-14,6.27-14,14s6.27,14,14,14,14-6.27,14-14-6.27-14-14-14h0Z"/>
    <path class="cls-2" d="M179.95,3c-7.73,0-14,6.27-14,14s6.27,14,14,14,14-6.27,14-14-6.27-14-14-14h0Z"/>
    <path class="cls-2" d="M222.95,31c-7.73,0-14,6.27-14,14s6.27,14,14,14,14-6.27,14-14-6.27-14-14-14h0Z"/>
    <path class="cls-2" d="M247.95,69c-7.73,0-14,6.27-14,14s6.27,14,14,14,14-6.27,14-14-6.27-14-14-14h0Z"/>
    <path class="cls-2" d="M247.95,122c-7.73,0-14,6.27-14,14s6.27,14,14,14,14-6.27,14-14-6.27-14-14-14h0Z"/>
    <path class="cls-2" d="M222.95,163c-7.73,0-14,6.27-14,14s6.27,14,14,14,14-6.27,14-14-6.27-14-14-14h0Z"/>
    <path class="cls-2" d="M179.95,186c-7.73,0-14,6.27-14,14s6.27,14,14,14,14-6.27,14-14-6.27-14-14-14h0Z"/>
    <path class="cls-2" d="M128.95,189c-7.73,0-14,6.27-14,14s6.27,14,14,14,14-6.27,14-14-6.27-14-14-14h0Z"/>
  </g>
</svg>